<svg xmlns="http://www.w3.org/2000/svg" xmlns:xlink="http://www.w3.org/1999/xlink" width="500" zoomAndPan="magnify" viewBox="0 0 375 374.999991" height="500" preserveAspectRatio="xMidYMid meet" version="1.0"><defs><g/><clipPath id="c718e0ff08"><path d="M 129.75 112.5 L 245.25 112.5 L 245.25 172.496094 L 129.75 172.496094 Z M 129.75 202.488281 L 245.25 202.488281 L 245.25 262.5 L 129.75 262.5 Z M 129.75 202.488281 " clip-rule="nonzero"/></clipPath></defs><g clip-path="url(#c718e0ff08)"><path fill="#ffffff" d="M 245.246094 149.503906 C 245.246094 157.324219 243.695312 164.261719 240.59375 170.320312 C 237.566406 176.308594 233.339844 181.273438 227.914062 185.21875 C 222.5625 189.164062 216.679688 192.054688 210.269531 193.886719 C 203.855469 195.714844 197.058594 196.632812 189.871094 196.632812 L 173.070312 196.632812 L 173.070312 242.070312 C 173.070312 244.535156 173.457031 246.722656 174.234375 248.621094 C 175.078125 250.453125 176.769531 251.863281 179.304688 252.851562 C 180.574219 253.34375 182.792969 253.800781 185.964844 254.222656 C 189.203125 254.644531 192.164062 254.894531 194.839844 254.964844 L 194.839844 262.464844 L 130.484375 262.464844 L 130.484375 254.964844 C 132.175781 254.824219 134.605469 254.574219 137.777344 254.222656 C 141.015625 253.871094 143.273438 253.414062 144.539062 252.851562 C 146.652344 251.933594 148.167969 250.59375 149.082031 248.835938 C 150.070312 247.074219 150.5625 244.820312 150.5625 242.070312 L 150.5625 133.863281 C 150.5625 131.398438 150.210938 129.179688 149.507812 127.207031 C 148.800781 125.234375 147.144531 123.753906 144.539062 122.769531 C 141.863281 121.851562 139.1875 121.21875 136.507812 120.867188 C 133.902344 120.441406 131.648438 120.160156 129.746094 120.019531 L 129.746094 112.519531 L 198.222656 112.519531 C 212.167969 112.519531 223.476562 115.898438 232.140625 122.664062 C 240.878906 129.355469 245.246094 138.300781 245.246094 149.503906 Z M 213.121094 175.074219 C 215.515625 171.695312 217.101562 168.207031 217.875 164.613281 C 218.652344 160.949219 219.039062 157.675781 219.039062 154.785156 C 219.039062 150.769531 218.546875 146.683594 217.558594 142.527344 C 216.644531 138.371094 215.023438 134.742188 212.699219 131.644531 C 210.234375 128.332031 206.992188 125.761719 202.976562 123.929688 C 198.960938 122.097656 193.960938 121.183594 187.972656 121.183594 L 173.070312 121.183594 L 173.070312 187.4375 L 183.851562 187.4375 C 191.457031 187.4375 197.621094 186.277344 202.34375 183.953125 C 207.132812 181.558594 210.726562 178.597656 213.121094 175.074219 Z M 213.121094 175.074219 " fill-opacity="1" fill-rule="nonzero"/></g><g fill="#ffffff" fill-opacity="1"><g transform="translate(150.649931, 193.5722)"><g><path d="M 3.65625 -0.125 C 3.65625 -0.0195312 3.175781 0.03125 2.21875 0.03125 C 1.257812 0.03125 0.78125 -0.046875 0.78125 -0.203125 L 0.78125 -12.03125 C 0.78125 -12.113281 0.957031 -12.171875 1.3125 -12.203125 C 1.664062 -12.242188 1.960938 -12.265625 2.203125 -12.265625 C 3.171875 -12.265625 3.65625 -12.160156 3.65625 -11.953125 L 3.65625 -8.5 C 4.300781 -8.6875 4.789062 -8.78125 5.125 -8.78125 C 6 -8.78125 6.6875 -8.546875 7.1875 -8.078125 C 7.695312 -7.617188 7.953125 -6.753906 7.953125 -5.484375 L 7.953125 -0.140625 C 7.953125 -0.0351562 7.503906 0.015625 6.609375 0.015625 C 5.597656 -0.015625 5.09375 -0.0703125 5.09375 -0.15625 L 5.09375 -5.234375 C 5.09375 -5.796875 4.910156 -6.078125 4.546875 -6.078125 C 4.285156 -6.078125 3.988281 -5.957031 3.65625 -5.71875 Z M 3.65625 -0.125 "/></g></g></g><g fill="#ffffff" fill-opacity="1"><g transform="translate(159.301172, 193.5722)"><g><path d="M 1.53125 -1.015625 C 0.8125 -1.804688 0.453125 -2.90625 0.453125 -4.3125 C 0.453125 -5.71875 0.8125 -6.816406 1.53125 -7.609375 C 2.25 -8.410156 3.21875 -8.8125 4.4375 -8.8125 C 5.65625 -8.8125 6.617188 -8.410156 7.328125 -7.609375 C 8.046875 -6.816406 8.40625 -5.71875 8.40625 -4.3125 C 8.40625 -2.90625 8.046875 -1.804688 7.328125 -1.015625 C 6.617188 -0.222656 5.65625 0.171875 4.4375 0.171875 C 3.21875 0.171875 2.25 -0.222656 1.53125 -1.015625 Z M 4.4375 -5.921875 C 3.789062 -5.921875 3.46875 -5.390625 3.46875 -4.328125 C 3.46875 -3.273438 3.789062 -2.75 4.4375 -2.75 C 5.09375 -2.75 5.421875 -3.273438 5.421875 -4.328125 C 5.421875 -5.390625 5.09375 -5.921875 4.4375 -5.921875 Z M 4.4375 -5.921875 "/></g></g></g><g fill="#ffffff" fill-opacity="1"><g transform="translate(168.159626, 193.5722)"><g><path d="M 7.296875 -0.46875 C 6.578125 -0.0390625 5.644531 0.171875 4.5 0.171875 C 3.363281 0.171875 2.40625 -0.210938 1.625 -0.984375 C 0.84375 -1.765625 0.453125 -2.84375 0.453125 -4.21875 C 0.453125 -5.59375 0.828125 -6.703125 1.578125 -7.546875 C 2.328125 -8.390625 3.273438 -8.8125 4.421875 -8.8125 C 5.578125 -8.8125 6.46875 -8.515625 7.09375 -7.921875 C 7.726562 -7.335938 8.046875 -6.625 8.046875 -5.78125 C 8.046875 -3.914062 6.972656 -2.984375 4.828125 -2.984375 L 3.640625 -2.984375 C 3.640625 -2.640625 3.734375 -2.398438 3.921875 -2.265625 C 4.117188 -2.140625 4.398438 -2.078125 4.765625 -2.078125 C 5.566406 -2.078125 6.332031 -2.257812 7.0625 -2.625 C 7.070312 -2.632812 7.125 -2.550781 7.21875 -2.375 C 7.488281 -1.882812 7.625 -1.46875 7.625 -1.125 C 7.625 -0.789062 7.515625 -0.570312 7.296875 -0.46875 Z M 5.140625 -5.453125 C 5.140625 -5.941406 4.90625 -6.1875 4.4375 -6.1875 C 4.21875 -6.1875 4.03125 -6.117188 3.875 -5.984375 C 3.71875 -5.847656 3.640625 -5.65625 3.640625 -5.40625 L 3.640625 -4.875 L 4.578125 -4.875 C 4.953125 -4.875 5.140625 -5.066406 5.140625 -5.453125 Z M 5.140625 -5.453125 "/></g></g></g><g fill="#ffffff" fill-opacity="1"><g transform="translate(176.551842, 193.5722)"><g><path d="M 0.859375 -12.03125 C 0.859375 -12.164062 1.351562 -12.234375 2.34375 -12.234375 C 3.34375 -12.234375 3.84375 -12.160156 3.84375 -12.015625 L 3.84375 -8.671875 C 4.34375 -8.765625 4.695312 -8.8125 4.90625 -8.8125 C 7.320312 -8.8125 8.53125 -7.421875 8.53125 -4.640625 C 8.53125 -3.097656 8.15625 -1.910156 7.40625 -1.078125 C 6.664062 -0.242188 5.613281 0.171875 4.25 0.171875 C 2.882812 0.171875 1.753906 -0.132812 0.859375 -0.75 Z M 4.421875 -6.109375 C 4.222656 -6.109375 4.03125 -6.046875 3.84375 -5.921875 L 3.84375 -2.625 C 4.007812 -2.550781 4.179688 -2.515625 4.359375 -2.515625 C 4.535156 -2.515625 4.71875 -2.585938 4.90625 -2.734375 C 5.226562 -2.960938 5.390625 -3.492188 5.390625 -4.328125 C 5.390625 -5.515625 5.066406 -6.109375 4.421875 -6.109375 Z M 4.421875 -6.109375 "/></g></g></g><g fill="#ffffff" fill-opacity="1"><g transform="translate(185.531166, 193.5722)"><g><path d="M 7.296875 -0.46875 C 6.578125 -0.0390625 5.644531 0.171875 4.5 0.171875 C 3.363281 0.171875 2.40625 -0.210938 1.625 -0.984375 C 0.84375 -1.765625 0.453125 -2.84375 0.453125 -4.21875 C 0.453125 -5.59375 0.828125 -6.703125 1.578125 -7.546875 C 2.328125 -8.390625 3.273438 -8.8125 4.421875 -8.8125 C 5.578125 -8.8125 6.46875 -8.515625 7.09375 -7.921875 C 7.726562 -7.335938 8.046875 -6.625 8.046875 -5.78125 C 8.046875 -3.914062 6.972656 -2.984375 4.828125 -2.984375 L 3.640625 -2.984375 C 3.640625 -2.640625 3.734375 -2.398438 3.921875 -2.265625 C 4.117188 -2.140625 4.398438 -2.078125 4.765625 -2.078125 C 5.566406 -2.078125 6.332031 -2.257812 7.0625 -2.625 C 7.070312 -2.632812 7.125 -2.550781 7.21875 -2.375 C 7.488281 -1.882812 7.625 -1.46875 7.625 -1.125 C 7.625 -0.789062 7.515625 -0.570312 7.296875 -0.46875 Z M 5.140625 -5.453125 C 5.140625 -5.941406 4.90625 -6.1875 4.4375 -6.1875 C 4.21875 -6.1875 4.03125 -6.117188 3.875 -5.984375 C 3.71875 -5.847656 3.640625 -5.65625 3.640625 -5.40625 L 3.640625 -4.875 L 4.578125 -4.875 C 4.953125 -4.875 5.140625 -5.066406 5.140625 -5.453125 Z M 5.140625 -5.453125 "/></g></g></g><g fill="#ffffff" fill-opacity="1"><g transform="translate(193.923382, 193.5722)"><g><path d="M 1.140625 -3.109375 C 2.066406 -2.546875 2.800781 -2.265625 3.34375 -2.265625 C 3.695312 -2.265625 3.875 -2.382812 3.875 -2.625 C 3.875 -2.800781 3.570312 -3.023438 2.96875 -3.296875 C 1.53125 -3.878906 0.8125 -4.84375 0.8125 -6.1875 C 0.8125 -7.03125 1.117188 -7.675781 1.734375 -8.125 C 2.359375 -8.582031 3.101562 -8.8125 3.96875 -8.8125 C 4.84375 -8.8125 5.582031 -8.71875 6.1875 -8.53125 C 6.789062 -8.34375 7.09375 -8.097656 7.09375 -7.796875 C 7.09375 -7.546875 6.96875 -7.210938 6.71875 -6.796875 C 6.476562 -6.390625 6.3125 -6.164062 6.21875 -6.125 C 5.71875 -6.40625 5.179688 -6.546875 4.609375 -6.546875 C 4.296875 -6.546875 4.140625 -6.4375 4.140625 -6.21875 C 4.140625 -6.082031 4.195312 -5.960938 4.3125 -5.859375 C 4.4375 -5.765625 4.660156 -5.644531 4.984375 -5.5 C 5.304688 -5.351562 5.570312 -5.222656 5.78125 -5.109375 C 6 -4.992188 6.242188 -4.832031 6.515625 -4.625 C 7.066406 -4.1875 7.34375 -3.617188 7.34375 -2.921875 C 7.34375 -1.992188 7.035156 -1.242188 6.421875 -0.671875 C 5.804688 -0.109375 4.882812 0.171875 3.65625 0.171875 C 2.84375 0.171875 2.101562 0.0351562 1.4375 -0.234375 C 0.769531 -0.515625 0.4375 -0.894531 0.4375 -1.375 C 0.4375 -1.695312 0.507812 -2.035156 0.65625 -2.390625 C 0.8125 -2.753906 0.972656 -2.992188 1.140625 -3.109375 Z M 1.140625 -3.109375 "/></g></g></g><g fill="#ffffff" fill-opacity="1"><g transform="translate(201.693959, 193.5722)"><g><path d="M 1.140625 -3.109375 C 2.066406 -2.546875 2.800781 -2.265625 3.34375 -2.265625 C 3.695312 -2.265625 3.875 -2.382812 3.875 -2.625 C 3.875 -2.800781 3.570312 -3.023438 2.96875 -3.296875 C 1.53125 -3.878906 0.8125 -4.84375 0.8125 -6.1875 C 0.8125 -7.03125 1.117188 -7.675781 1.734375 -8.125 C 2.359375 -8.582031 3.101562 -8.8125 3.96875 -8.8125 C 4.84375 -8.8125 5.582031 -8.71875 6.1875 -8.53125 C 6.789062 -8.34375 7.09375 -8.097656 7.09375 -7.796875 C 7.09375 -7.546875 6.96875 -7.210938 6.71875 -6.796875 C 6.476562 -6.390625 6.3125 -6.164062 6.21875 -6.125 C 5.71875 -6.40625 5.179688 -6.546875 4.609375 -6.546875 C 4.296875 -6.546875 4.140625 -6.4375 4.140625 -6.21875 C 4.140625 -6.082031 4.195312 -5.960938 4.3125 -5.859375 C 4.4375 -5.765625 4.660156 -5.644531 4.984375 -5.5 C 5.304688 -5.351562 5.570312 -5.222656 5.78125 -5.109375 C 6 -4.992188 6.242188 -4.832031 6.515625 -4.625 C 7.066406 -4.1875 7.34375 -3.617188 7.34375 -2.921875 C 7.34375 -1.992188 7.035156 -1.242188 6.421875 -0.671875 C 5.804688 -0.109375 4.882812 0.171875 3.65625 0.171875 C 2.84375 0.171875 2.101562 0.0351562 1.4375 -0.234375 C 0.769531 -0.515625 0.4375 -0.894531 0.4375 -1.375 C 0.4375 -1.695312 0.507812 -2.035156 0.65625 -2.390625 C 0.8125 -2.753906 0.972656 -2.992188 1.140625 -3.109375 Z M 1.140625 -3.109375 "/></g></g></g><g fill="#ffffff" fill-opacity="1"><g transform="translate(209.464535, 193.5722)"><g><path d="M 1.859375 -6.265625 C 1.535156 -6.835938 1.375 -7.304688 1.375 -7.671875 C 1.375 -8.035156 1.472656 -8.269531 1.671875 -8.375 C 2.328125 -8.664062 3.226562 -8.8125 4.375 -8.8125 C 5.519531 -8.8125 6.328125 -8.539062 6.796875 -8 C 7.273438 -7.46875 7.515625 -6.675781 7.515625 -5.625 L 7.515625 -2.90625 L 8.09375 -2.90625 C 8.289062 -2.90625 8.441406 -2.785156 8.546875 -2.546875 C 8.660156 -2.316406 8.71875 -2 8.71875 -1.59375 C 8.71875 -1.195312 8.613281 -0.800781 8.40625 -0.40625 C 8.207031 -0.0195312 7.9375 0.171875 7.59375 0.171875 C 6.976562 0.171875 6.476562 0.00390625 6.09375 -0.328125 C 5.914062 -0.460938 5.785156 -0.628906 5.703125 -0.828125 C 5.171875 -0.160156 4.347656 0.171875 3.234375 0.171875 C 2.390625 0.171875 1.675781 -0.125 1.09375 -0.71875 C 0.519531 -1.320312 0.234375 -2.03125 0.234375 -2.84375 C 0.234375 -4.71875 1.359375 -5.65625 3.609375 -5.65625 L 4.5625 -5.65625 L 4.5625 -5.828125 C 4.5625 -6.128906 4.507812 -6.320312 4.40625 -6.40625 C 4.3125 -6.5 4.085938 -6.546875 3.734375 -6.546875 C 3.296875 -6.546875 2.671875 -6.453125 1.859375 -6.265625 Z M 3.25 -3.09375 C 3.25 -2.832031 3.316406 -2.632812 3.453125 -2.5 C 3.585938 -2.375 3.757812 -2.3125 3.96875 -2.3125 C 4.1875 -2.3125 4.382812 -2.398438 4.5625 -2.578125 L 4.5625 -3.90625 L 4.078125 -3.90625 C 3.523438 -3.90625 3.25 -3.632812 3.25 -3.09375 Z M 3.25 -3.09375 "/></g></g></g><g fill="#ffffff" fill-opacity="1"><g transform="translate(218.39206, 193.5722)"><g><path d="M 0.171875 -8.546875 C 0.171875 -8.671875 0.695312 -8.734375 1.75 -8.734375 C 2.800781 -8.734375 3.347656 -8.675781 3.390625 -8.5625 L 4.625 -4.484375 L 5.8125 -8.59375 C 5.863281 -8.6875 6.222656 -8.734375 6.890625 -8.734375 C 8.421875 -8.734375 9.148438 -8.660156 9.078125 -8.515625 L 5.03125 3.03125 C 5.007812 3.101562 4.691406 3.140625 4.078125 3.140625 C 3.460938 3.140625 2.890625 3.117188 2.359375 3.078125 C 1.835938 3.035156 1.585938 2.988281 1.609375 2.9375 L 3.109375 -0.6875 Z M 0.171875 -8.546875 "/></g></g></g><g fill="#ffffff" fill-opacity="1"><g transform="translate(227.66494, 193.5722)"><g><path d="M 1.140625 -3.109375 C 2.066406 -2.546875 2.800781 -2.265625 3.34375 -2.265625 C 3.695312 -2.265625 3.875 -2.382812 3.875 -2.625 C 3.875 -2.800781 3.570312 -3.023438 2.96875 -3.296875 C 1.53125 -3.878906 0.8125 -4.84375 0.8125 -6.1875 C 0.8125 -7.03125 1.117188 -7.675781 1.734375 -8.125 C 2.359375 -8.582031 3.101562 -8.8125 3.96875 -8.8125 C 4.84375 -8.8125 5.582031 -8.71875 6.1875 -8.53125 C 6.789062 -8.34375 7.09375 -8.097656 7.09375 -7.796875 C 7.09375 -7.546875 6.96875 -7.210938 6.71875 -6.796875 C 6.476562 -6.390625 6.3125 -6.164062 6.21875 -6.125 C 5.71875 -6.40625 5.179688 -6.546875 4.609375 -6.546875 C 4.296875 -6.546875 4.140625 -6.4375 4.140625 -6.21875 C 4.140625 -6.082031 4.195312 -5.960938 4.3125 -5.859375 C 4.4375 -5.765625 4.660156 -5.644531 4.984375 -5.5 C 5.304688 -5.351562 5.570312 -5.222656 5.78125 -5.109375 C 6 -4.992188 6.242188 -4.832031 6.515625 -4.625 C 7.066406 -4.1875 7.34375 -3.617188 7.34375 -2.921875 C 7.34375 -1.992188 7.035156 -1.242188 6.421875 -0.671875 C 5.804688 -0.109375 4.882812 0.171875 3.65625 0.171875 C 2.84375 0.171875 2.101562 0.0351562 1.4375 -0.234375 C 0.769531 -0.515625 0.4375 -0.894531 0.4375 -1.375 C 0.4375 -1.695312 0.507812 -2.035156 0.65625 -2.390625 C 0.8125 -2.753906 0.972656 -2.992188 1.140625 -3.109375 Z M 1.140625 -3.109375 "/></g></g></g></svg>