<svg xmlns="http://www.w3.org/2000/svg" xmlns:xlink="http://www.w3.org/1999/xlink" width="2000" zoomAndPan="magnify" viewBox="0 0 1500 1499.999933" height="2000" preserveAspectRatio="xMidYMid meet" version="1.0"><defs><g/><clipPath id="314fca6f9e"><path d="M 299 760 L 398 760 L 398 911.96875 L 299 911.96875 Z M 299 760 " clip-rule="nonzero"/></clipPath><clipPath id="0432882b19"><path d="M 104 639 L 352 639 L 352 911.96875 L 104 911.96875 Z M 104 639 " clip-rule="nonzero"/></clipPath><clipPath id="64e76ced13"><rect x="0" width="910" y="0" height="267"/></clipPath></defs><g clip-path="url(#314fca6f9e)"><path fill="#e7e3dd" d="M 394.027344 874.175781 L 328.136719 760.074219 L 299.085938 810.449219 L 350.386719 899.332031 C 355.023438 907.367188 363.492188 911.941406 372.207031 911.941406 C 376.472656 911.941406 380.796875 910.828125 384.753906 908.542969 C 396.867188 901.558594 400.949219 886.226562 394.027344 874.175781 Z M 394.027344 874.175781 " fill-opacity="1" fill-rule="nonzero"/></g><g clip-path="url(#0432882b19)"><path fill="#e7e3dd" d="M 347.792969 697.398438 L 319.851562 745.792969 L 290.738281 796.171875 L 245.742188 874.113281 C 232.265625 897.476562 207.109375 912.003906 180.160156 912.003906 C 152.777344 912.003906 128.238281 897.847656 114.519531 874.113281 C 100.796875 850.441406 100.796875 822.070312 114.519531 798.332031 L 193.265625 662.042969 C 201.421875 647.886719 216.074219 639.417969 232.390625 639.417969 C 248.707031 639.417969 263.359375 647.886719 271.578125 662.042969 L 274.421875 666.984375 L 282.582031 681.078125 L 253.46875 731.453125 L 232.390625 694.984375 L 158.21875 823.492188 C 151.605469 834.925781 155.992188 845.0625 158.21875 848.894531 C 160.441406 852.726562 166.996094 861.628906 180.222656 861.628906 C 189.246094 861.628906 197.714844 856.746094 202.164062 848.894531 L 261.6875 745.792969 L 290.800781 695.417969 L 304.152344 672.238281 C 311.136719 660.1875 326.527344 656.046875 338.582031 663.03125 C 350.632812 669.953125 354.777344 685.34375 347.792969 697.398438 Z M 347.792969 697.398438 " fill-opacity="1" fill-rule="nonzero"/></g><path fill="#e7e3dd" d="M 335.550781 637.5625 C 349.027344 667.914062 393.964844 649.308594 382.097656 618.277344 C 368.558594 587.992188 323.625 606.597656 335.550781 637.5625 Z M 335.550781 637.5625 " fill-opacity="1" fill-rule="nonzero"/><g transform="matrix(1, 0, 0, 1, 477, 669)"><g clip-path="url(#64e76ced13)"><g fill="#e7e3dd" fill-opacity="1"><g transform="translate(1.801772, 206.157959)"><g><path d="M 6.90625 -155.953125 L 48.109375 -155.953125 C 60.578125 -155.953125 69.472656 -151.925781 74.796875 -143.875 C 80.117188 -135.820312 82.78125 -124.050781 82.78125 -108.5625 C 82.78125 -93.070312 80.421875 -81.390625 75.703125 -73.515625 C 70.984375 -65.648438 62.507812 -61.71875 50.28125 -61.71875 L 37.578125 -61.71875 L 37.578125 0 L 6.90625 0 Z M 39.390625 -89.859375 C 43.148438 -89.859375 45.90625 -90.554688 47.65625 -91.953125 C 49.40625 -93.347656 50.550781 -95.34375 51.09375 -97.9375 C 51.644531 -100.539062 51.921875 -104.265625 51.921875 -109.109375 C 51.921875 -115.640625 51.191406 -120.359375 49.734375 -123.265625 C 48.285156 -126.171875 45.382812 -127.625 41.03125 -127.625 L 37.578125 -127.625 L 37.578125 -89.859375 Z M 39.390625 -89.859375 "/></g></g></g><g fill="#e7e3dd" fill-opacity="1"><g transform="translate(86.21501, 206.157959)"><g><path d="M 6.90625 0 L 6.90625 -155.953125 L 37.9375 -155.953125 L 37.9375 -100.21875 L 52.65625 -100.21875 L 52.65625 -155.953125 L 83.6875 -155.953125 L 83.6875 0 L 52.65625 0 L 52.65625 -70.796875 L 37.9375 -70.796875 L 37.9375 0 Z M 6.90625 0 "/></g></g></g><g fill="#e7e3dd" fill-opacity="1"><g transform="translate(175.529672, 206.157959)"><g><path d="M 44.109375 1.453125 C 31.523438 1.453125 21.960938 -2.390625 15.421875 -10.078125 C 8.890625 -17.765625 5.625 -28.566406 5.625 -42.484375 L 5.625 -116.734375 C 5.625 -130.171875 8.890625 -140.304688 15.421875 -147.140625 C 21.960938 -153.984375 31.523438 -157.40625 44.109375 -157.40625 C 56.703125 -157.40625 66.265625 -153.984375 72.796875 -147.140625 C 79.335938 -140.304688 82.609375 -130.171875 82.609375 -116.734375 L 82.609375 -42.484375 C 82.609375 -28.441406 79.335938 -17.609375 72.796875 -9.984375 C 66.265625 -2.359375 56.703125 1.453125 44.109375 1.453125 Z M 44.109375 -27.234375 C 46.898438 -27.234375 48.78125 -28.441406 49.75 -30.859375 C 50.71875 -33.285156 51.203125 -36.675781 51.203125 -41.03125 L 51.203125 -117.28125 C 51.203125 -120.664062 50.742188 -123.414062 49.828125 -125.53125 C 48.921875 -127.65625 47.078125 -128.71875 44.296875 -128.71875 C 39.085938 -128.71875 36.484375 -124.785156 36.484375 -116.921875 L 36.484375 -40.84375 C 36.484375 -36.363281 37.03125 -32.972656 38.125 -30.671875 C 39.21875 -28.378906 41.210938 -27.234375 44.109375 -27.234375 Z M 44.109375 -27.234375 "/></g></g></g><g fill="#e7e3dd" fill-opacity="1"><g transform="translate(262.484391, 206.157959)"><g><path d="M 6.90625 0 L 6.90625 -155.953125 L 69.34375 -155.953125 L 69.34375 -125.8125 L 38.671875 -125.8125 L 38.671875 -95.5 L 68.078125 -95.5 L 68.078125 -66.078125 L 38.671875 -66.078125 L 38.671875 -30.3125 L 71.34375 -30.3125 L 71.34375 0 Z M 6.90625 0 "/></g></g></g><g fill="#e7e3dd" fill-opacity="1"><g transform="translate(336.005601, 206.157959)"><g><path d="M 6.90625 -155.953125 L 49.203125 -155.953125 C 60.578125 -155.953125 68.835938 -153.164062 73.984375 -147.59375 C 79.128906 -142.03125 81.703125 -132.953125 81.703125 -120.359375 L 81.703125 -113.46875 C 81.703125 -98.582031 76.375 -89.6875 65.71875 -86.78125 C 72.257812 -85.082031 76.859375 -81.144531 79.515625 -74.96875 C 82.179688 -68.800781 83.515625 -60.632812 83.515625 -50.46875 C 83.515625 -33.882812 81.03125 -21.328125 76.0625 -12.796875 C 71.101562 -4.265625 62.148438 0 49.203125 0 L 6.90625 0 Z M 43.75 -97.3125 C 46.414062 -97.3125 48.234375 -98.304688 49.203125 -100.296875 C 50.171875 -102.296875 50.65625 -105.113281 50.65625 -108.75 L 50.65625 -124.359375 C 50.65625 -129.441406 48.414062 -131.984375 43.9375 -131.984375 L 37.40625 -131.984375 L 37.40625 -97.3125 Z M 40.484375 -27.40625 C 48.597656 -27.40625 52.65625 -31.28125 52.65625 -39.03125 L 52.65625 -58.453125 C 52.65625 -63.171875 51.957031 -66.738281 50.5625 -69.15625 C 49.164062 -71.582031 46.710938 -72.796875 43.203125 -72.796875 L 37.40625 -72.796875 L 37.40625 -27.59375 Z M 40.484375 -27.40625 "/></g></g></g><g fill="#e7e3dd" fill-opacity="1"><g transform="translate(421.689587, 206.157959)"><g><path d="M 6.90625 0 L 6.90625 -155.953125 L 69.34375 -155.953125 L 69.34375 -125.8125 L 38.671875 -125.8125 L 38.671875 -95.5 L 68.078125 -95.5 L 68.078125 -66.078125 L 38.671875 -66.078125 L 38.671875 -30.3125 L 71.34375 -30.3125 L 71.34375 0 Z M 6.90625 0 "/></g></g></g><g fill="#e7e3dd" fill-opacity="1"><g transform="translate(495.210765, 206.157959)"><g><path d="M 43.9375 1.453125 C 29.769531 1.453125 19.539062 -2.054688 13.25 -9.078125 C 6.957031 -16.097656 3.8125 -27.414062 3.8125 -43.03125 L 3.8125 -58.28125 L 34.5 -58.28125 L 34.5 -38.84375 C 34.5 -31.101562 36.976562 -27.234375 41.9375 -27.234375 C 44.71875 -27.234375 46.648438 -28.050781 47.734375 -29.6875 C 48.828125 -31.320312 49.375 -34.070312 49.375 -37.9375 C 49.375 -43.019531 48.769531 -47.222656 47.5625 -50.546875 C 46.351562 -53.878906 44.8125 -56.664062 42.9375 -58.90625 C 41.0625 -61.144531 37.703125 -64.625 32.859375 -69.34375 L 19.421875 -82.78125 C 9.015625 -92.945312 3.8125 -104.203125 3.8125 -116.546875 C 3.8125 -129.859375 6.867188 -139.992188 12.984375 -146.953125 C 19.097656 -153.921875 28.023438 -157.40625 39.765625 -157.40625 C 53.796875 -157.40625 63.898438 -153.679688 70.078125 -146.234375 C 76.253906 -138.796875 79.34375 -127.144531 79.34375 -111.28125 L 47.5625 -111.28125 L 47.390625 -122 C 47.390625 -124.050781 46.8125 -125.679688 45.65625 -126.890625 C 44.507812 -128.109375 42.90625 -128.71875 40.84375 -128.71875 C 38.425781 -128.71875 36.613281 -128.050781 35.40625 -126.71875 C 34.195312 -125.382812 33.59375 -123.566406 33.59375 -121.265625 C 33.59375 -116.179688 36.492188 -110.921875 42.296875 -105.484375 L 60.453125 -88.046875 C 64.691406 -83.929688 68.203125 -80.023438 70.984375 -76.328125 C 73.765625 -72.640625 76.003906 -68.285156 77.703125 -63.265625 C 79.398438 -58.242188 80.25 -52.285156 80.25 -45.390625 C 80.25 -30.015625 77.429688 -18.363281 71.796875 -10.4375 C 66.171875 -2.507812 56.882812 1.453125 43.9375 1.453125 Z M 43.9375 1.453125 "/></g></g></g><g fill="#e7e3dd" fill-opacity="1"><g transform="translate(577.627134, 206.157959)"><g><path d="M 43.9375 1.453125 C 29.769531 1.453125 19.539062 -2.054688 13.25 -9.078125 C 6.957031 -16.097656 3.8125 -27.414062 3.8125 -43.03125 L 3.8125 -58.28125 L 34.5 -58.28125 L 34.5 -38.84375 C 34.5 -31.101562 36.976562 -27.234375 41.9375 -27.234375 C 44.71875 -27.234375 46.648438 -28.050781 47.734375 -29.6875 C 48.828125 -31.320312 49.375 -34.070312 49.375 -37.9375 C 49.375 -43.019531 48.769531 -47.222656 47.5625 -50.546875 C 46.351562 -53.878906 44.8125 -56.664062 42.9375 -58.90625 C 41.0625 -61.144531 37.703125 -64.625 32.859375 -69.34375 L 19.421875 -82.78125 C 9.015625 -92.945312 3.8125 -104.203125 3.8125 -116.546875 C 3.8125 -129.859375 6.867188 -139.992188 12.984375 -146.953125 C 19.097656 -153.921875 28.023438 -157.40625 39.765625 -157.40625 C 53.796875 -157.40625 63.898438 -153.679688 70.078125 -146.234375 C 76.253906 -138.796875 79.34375 -127.144531 79.34375 -111.28125 L 47.5625 -111.28125 L 47.390625 -122 C 47.390625 -124.050781 46.8125 -125.679688 45.65625 -126.890625 C 44.507812 -128.109375 42.90625 -128.71875 40.84375 -128.71875 C 38.425781 -128.71875 36.613281 -128.050781 35.40625 -126.71875 C 34.195312 -125.382812 33.59375 -123.566406 33.59375 -121.265625 C 33.59375 -116.179688 36.492188 -110.921875 42.296875 -105.484375 L 60.453125 -88.046875 C 64.691406 -83.929688 68.203125 -80.023438 70.984375 -76.328125 C 73.765625 -72.640625 76.003906 -68.285156 77.703125 -63.265625 C 79.398438 -58.242188 80.25 -52.285156 80.25 -45.390625 C 80.25 -30.015625 77.429688 -18.363281 71.796875 -10.4375 C 66.171875 -2.507812 56.882812 1.453125 43.9375 1.453125 Z M 43.9375 1.453125 "/></g></g></g><g fill="#e7e3dd" fill-opacity="1"><g transform="translate(660.043504, 206.157959)"><g><path d="M 2.71875 0 L 17.796875 -155.953125 L 70.625 -155.953125 L 85.515625 0 L 55.921875 0 L 53.734375 -25.234375 L 34.859375 -25.234375 L 33.046875 0 Z M 37.21875 -50.109375 L 51.375 -50.109375 L 44.484375 -129.4375 L 43.03125 -129.4375 Z M 37.21875 -50.109375 "/></g></g></g><g fill="#e7e3dd" fill-opacity="1"><g transform="translate(746.816653, 206.157959)"><g><path d="M 25.78125 0 L 25.78125 -51.375 L 0.90625 -155.953125 L 31.765625 -155.953125 L 40.484375 -103.125 L 49.203125 -155.953125 L 80.0625 -155.953125 L 55.1875 -51.375 L 55.1875 0 Z M 25.78125 0 "/></g></g></g><g fill="#e7e3dd" fill-opacity="1"><g transform="translate(826.510052, 206.157959)"><g><path d="M 43.9375 1.453125 C 29.769531 1.453125 19.539062 -2.054688 13.25 -9.078125 C 6.957031 -16.097656 3.8125 -27.414062 3.8125 -43.03125 L 3.8125 -58.28125 L 34.5 -58.28125 L 34.5 -38.84375 C 34.5 -31.101562 36.976562 -27.234375 41.9375 -27.234375 C 44.71875 -27.234375 46.648438 -28.050781 47.734375 -29.6875 C 48.828125 -31.320312 49.375 -34.070312 49.375 -37.9375 C 49.375 -43.019531 48.769531 -47.222656 47.5625 -50.546875 C 46.351562 -53.878906 44.8125 -56.664062 42.9375 -58.90625 C 41.0625 -61.144531 37.703125 -64.625 32.859375 -69.34375 L 19.421875 -82.78125 C 9.015625 -92.945312 3.8125 -104.203125 3.8125 -116.546875 C 3.8125 -129.859375 6.867188 -139.992188 12.984375 -146.953125 C 19.097656 -153.921875 28.023438 -157.40625 39.765625 -157.40625 C 53.796875 -157.40625 63.898438 -153.679688 70.078125 -146.234375 C 76.253906 -138.796875 79.34375 -127.144531 79.34375 -111.28125 L 47.5625 -111.28125 L 47.390625 -122 C 47.390625 -124.050781 46.8125 -125.679688 45.65625 -126.890625 C 44.507812 -128.109375 42.90625 -128.71875 40.84375 -128.71875 C 38.425781 -128.71875 36.613281 -128.050781 35.40625 -126.71875 C 34.195312 -125.382812 33.59375 -123.566406 33.59375 -121.265625 C 33.59375 -116.179688 36.492188 -110.921875 42.296875 -105.484375 L 60.453125 -88.046875 C 64.691406 -83.929688 68.203125 -80.023438 70.984375 -76.328125 C 73.765625 -72.640625 76.003906 -68.285156 77.703125 -63.265625 C 79.398438 -58.242188 80.25 -52.285156 80.25 -45.390625 C 80.25 -30.015625 77.429688 -18.363281 71.796875 -10.4375 C 66.171875 -2.507812 56.882812 1.453125 43.9375 1.453125 Z M 43.9375 1.453125 "/></g></g></g></g></g></svg>