<svg xmlns="http://www.w3.org/2000/svg" xmlns:xlink="http://www.w3.org/1999/xlink" width="2000" zoomAndPan="magnify" viewBox="0 0 1500 1499.999933" height="2000" preserveAspectRatio="xMidYMid meet" version="1.0"><defs><g/><clipPath id="b42b0e9978"><path d="M 508 719 L 579 719 L 579 827.503906 L 508 827.503906 Z M 508 719 " clip-rule="nonzero"/></clipPath><clipPath id="fc0b39ec65"><path d="M 370 633 L 546 633 L 546 827.503906 L 370 827.503906 Z M 370 633 " clip-rule="nonzero"/></clipPath></defs><g clip-path="url(#b42b0e9978)"><path fill="#e7e3dd" d="M 576.082031 800.300781 L 529.335938 719.351562 L 508.726562 755.089844 L 545.121094 818.148438 C 548.410156 823.847656 554.417969 827.09375 560.601562 827.09375 C 563.625 827.09375 566.695312 826.304688 569.503906 824.679688 C 578.097656 819.726562 580.992188 808.851562 576.082031 800.300781 Z M 576.082031 800.300781 " fill-opacity="1" fill-rule="nonzero"/></g><g clip-path="url(#fc0b39ec65)"><path fill="#e7e3dd" d="M 543.28125 674.886719 L 523.460938 709.222656 L 502.804688 744.960938 L 470.882812 800.257812 C 461.320312 816.832031 443.476562 827.136719 424.355469 827.136719 C 404.929688 827.136719 387.519531 817.09375 377.785156 800.257812 C 368.050781 783.460938 368.050781 763.332031 377.785156 746.496094 L 433.652344 649.800781 C 439.441406 639.761719 449.832031 633.753906 461.410156 633.753906 C 472.988281 633.753906 483.378906 639.761719 489.210938 649.800781 L 491.230469 653.3125 L 497.015625 663.308594 L 476.363281 699.046875 L 461.410156 673.175781 L 408.789062 764.34375 C 404.097656 772.453125 407.210938 779.644531 408.789062 782.363281 C 410.367188 785.082031 415.015625 791.398438 424.398438 791.398438 C 430.800781 791.398438 436.808594 787.933594 439.964844 782.363281 L 482.195312 709.222656 L 502.847656 673.480469 L 512.320312 657.039062 C 517.277344 648.488281 528.195312 645.550781 536.746094 650.503906 C 545.296875 655.414062 548.234375 666.335938 543.28125 674.886719 Z M 543.28125 674.886719 " fill-opacity="1" fill-rule="nonzero"/></g><path fill="#e7e3dd" d="M 534.597656 632.4375 C 544.15625 653.96875 576.035156 640.769531 567.617188 618.753906 C 558.015625 597.269531 526.132812 610.46875 534.597656 632.4375 Z M 534.597656 632.4375 " fill-opacity="1" fill-rule="nonzero"/><g fill="#e7e3dd" fill-opacity="1"><g transform="translate(636.226494, 800.999911)"><g><path d="M 4.890625 -110.640625 L 34.125 -110.640625 C 42.96875 -110.640625 49.28125 -107.78125 53.0625 -102.0625 C 56.84375 -96.351562 58.734375 -88.003906 58.734375 -77.015625 C 58.734375 -66.023438 57.054688 -57.738281 53.703125 -52.15625 C 50.359375 -46.582031 44.347656 -43.796875 35.671875 -43.796875 L 26.65625 -43.796875 L 26.65625 0 L 4.890625 0 Z M 27.953125 -63.75 C 30.609375 -63.75 32.554688 -64.242188 33.796875 -65.234375 C 35.046875 -66.222656 35.863281 -67.640625 36.25 -69.484375 C 36.632812 -71.328125 36.828125 -73.96875 36.828125 -77.40625 C 36.828125 -82.039062 36.3125 -85.390625 35.28125 -87.453125 C 34.257812 -89.515625 32.203125 -90.546875 29.109375 -90.546875 L 26.65625 -90.546875 L 26.65625 -63.75 Z M 27.953125 -63.75 "/></g></g></g><g fill="#e7e3dd" fill-opacity="1"><g transform="translate(696.113364, 800.999911)"><g><path d="M 4.890625 0 L 4.890625 -110.640625 L 26.921875 -110.640625 L 26.921875 -71.09375 L 37.34375 -71.09375 L 37.34375 -110.640625 L 59.375 -110.640625 L 59.375 0 L 37.34375 0 L 37.34375 -50.234375 L 26.921875 -50.234375 L 26.921875 0 Z M 4.890625 0 "/></g></g></g><g fill="#e7e3dd" fill-opacity="1"><g transform="translate(759.477544, 800.999911)"><g><path d="M 31.296875 1.03125 C 22.367188 1.03125 15.585938 -1.691406 10.953125 -7.140625 C 6.316406 -12.597656 4 -20.265625 4 -30.140625 L 4 -82.8125 C 4 -92.34375 6.316406 -99.535156 10.953125 -104.390625 C 15.585938 -109.242188 22.367188 -111.671875 31.296875 -111.671875 C 40.222656 -111.671875 47.003906 -109.242188 51.640625 -104.390625 C 56.285156 -99.535156 58.609375 -92.34375 58.609375 -82.8125 L 58.609375 -30.140625 C 58.609375 -20.179688 56.285156 -12.492188 51.640625 -7.078125 C 47.003906 -1.671875 40.222656 1.03125 31.296875 1.03125 Z M 31.296875 -19.3125 C 33.273438 -19.3125 34.609375 -20.171875 35.296875 -21.890625 C 35.984375 -23.609375 36.328125 -26.015625 36.328125 -29.109375 L 36.328125 -83.203125 C 36.328125 -85.609375 36.003906 -87.5625 35.359375 -89.0625 C 34.710938 -90.5625 33.398438 -91.3125 31.421875 -91.3125 C 27.734375 -91.3125 25.890625 -88.519531 25.890625 -82.9375 L 25.890625 -28.984375 C 25.890625 -25.804688 26.273438 -23.398438 27.046875 -21.765625 C 27.816406 -20.128906 29.234375 -19.3125 31.296875 -19.3125 Z M 31.296875 -19.3125 "/></g></g></g><g fill="#e7e3dd" fill-opacity="1"><g transform="translate(821.167465, 800.999911)"><g><path d="M 4.890625 0 L 4.890625 -110.640625 L 49.203125 -110.640625 L 49.203125 -89.25 L 27.4375 -89.25 L 27.4375 -67.75 L 48.296875 -67.75 L 48.296875 -46.875 L 27.4375 -46.875 L 27.4375 -21.515625 L 50.609375 -21.515625 L 50.609375 0 Z M 4.890625 0 "/></g></g></g><g fill="#e7e3dd" fill-opacity="1"><g transform="translate(873.326999, 800.999911)"><g><path d="M 4.890625 -110.640625 L 34.90625 -110.640625 C 42.976562 -110.640625 48.835938 -108.660156 52.484375 -104.703125 C 56.128906 -100.753906 57.953125 -94.316406 57.953125 -85.390625 L 57.953125 -80.5 C 57.953125 -69.9375 54.175781 -63.625 46.625 -61.5625 C 51.257812 -60.363281 54.519531 -57.570312 56.40625 -53.1875 C 58.300781 -48.8125 59.25 -43.019531 59.25 -35.8125 C 59.25 -24.039062 57.488281 -15.128906 53.96875 -9.078125 C 50.445312 -3.023438 44.09375 0 34.90625 0 L 4.890625 0 Z M 31.046875 -69.03125 C 32.929688 -69.03125 34.21875 -69.738281 34.90625 -71.15625 C 35.59375 -72.570312 35.9375 -74.570312 35.9375 -77.15625 L 35.9375 -88.21875 C 35.9375 -91.832031 34.347656 -93.640625 31.171875 -93.640625 L 26.53125 -93.640625 L 26.53125 -69.03125 Z M 28.71875 -19.453125 C 34.46875 -19.453125 37.34375 -22.195312 37.34375 -27.6875 L 37.34375 -41.46875 C 37.34375 -44.820312 36.847656 -47.351562 35.859375 -49.0625 C 34.878906 -50.78125 33.144531 -51.640625 30.65625 -51.640625 L 26.53125 -51.640625 L 26.53125 -19.578125 Z M 28.71875 -19.453125 "/></g></g></g><g fill="#e7e3dd" fill-opacity="1"><g transform="translate(934.115399, 800.999911)"><g><path d="M 4.890625 0 L 4.890625 -110.640625 L 49.203125 -110.640625 L 49.203125 -89.25 L 27.4375 -89.25 L 27.4375 -67.75 L 48.296875 -67.75 L 48.296875 -46.875 L 27.4375 -46.875 L 27.4375 -21.515625 L 50.609375 -21.515625 L 50.609375 0 Z M 4.890625 0 "/></g></g></g><g fill="#e7e3dd" fill-opacity="1"><g transform="translate(986.274911, 800.999911)"><g><path d="M 31.171875 1.03125 C 21.117188 1.03125 13.859375 -1.457031 9.390625 -6.4375 C 4.929688 -11.414062 2.703125 -19.445312 2.703125 -30.53125 L 2.703125 -41.34375 L 24.46875 -41.34375 L 24.46875 -27.5625 C 24.46875 -22.0625 26.226562 -19.3125 29.75 -19.3125 C 31.726562 -19.3125 33.101562 -19.890625 33.875 -21.046875 C 34.644531 -22.210938 35.03125 -24.171875 35.03125 -26.921875 C 35.03125 -30.523438 34.597656 -33.503906 33.734375 -35.859375 C 32.878906 -38.222656 31.785156 -40.195312 30.453125 -41.78125 C 29.128906 -43.375 26.75 -45.847656 23.3125 -49.203125 L 13.78125 -58.734375 C 6.394531 -65.941406 2.703125 -73.925781 2.703125 -82.6875 C 2.703125 -92.132812 4.867188 -99.328125 9.203125 -104.265625 C 13.546875 -109.203125 19.878906 -111.671875 28.203125 -111.671875 C 38.160156 -111.671875 45.328125 -109.03125 49.703125 -103.75 C 54.085938 -98.46875 56.28125 -90.203125 56.28125 -78.953125 L 33.75 -78.953125 L 33.609375 -86.546875 C 33.609375 -88.003906 33.203125 -89.160156 32.390625 -90.015625 C 31.578125 -90.878906 30.441406 -91.3125 28.984375 -91.3125 C 27.265625 -91.3125 25.972656 -90.835938 25.109375 -89.890625 C 24.253906 -88.953125 23.828125 -87.664062 23.828125 -86.03125 C 23.828125 -82.425781 25.890625 -78.691406 30.015625 -74.828125 L 42.890625 -62.46875 C 45.890625 -59.550781 48.378906 -56.78125 50.359375 -54.15625 C 52.335938 -51.539062 53.925781 -48.453125 55.125 -44.890625 C 56.320312 -41.328125 56.921875 -37.097656 56.921875 -32.203125 C 56.921875 -21.296875 54.925781 -13.03125 50.9375 -7.40625 C 46.945312 -1.78125 40.359375 1.03125 31.171875 1.03125 Z M 31.171875 1.03125 "/></g></g></g><g fill="#e7e3dd" fill-opacity="1"><g transform="translate(1044.745105, 800.999911)"><g><path d="M 31.171875 1.03125 C 21.117188 1.03125 13.859375 -1.457031 9.390625 -6.4375 C 4.929688 -11.414062 2.703125 -19.445312 2.703125 -30.53125 L 2.703125 -41.34375 L 24.46875 -41.34375 L 24.46875 -27.5625 C 24.46875 -22.0625 26.226562 -19.3125 29.75 -19.3125 C 31.726562 -19.3125 33.101562 -19.890625 33.875 -21.046875 C 34.644531 -22.210938 35.03125 -24.171875 35.03125 -26.921875 C 35.03125 -30.523438 34.597656 -33.503906 33.734375 -35.859375 C 32.878906 -38.222656 31.785156 -40.195312 30.453125 -41.78125 C 29.128906 -43.375 26.75 -45.847656 23.3125 -49.203125 L 13.78125 -58.734375 C 6.394531 -65.941406 2.703125 -73.925781 2.703125 -82.6875 C 2.703125 -92.132812 4.867188 -99.328125 9.203125 -104.265625 C 13.546875 -109.203125 19.878906 -111.671875 28.203125 -111.671875 C 38.160156 -111.671875 45.328125 -109.03125 49.703125 -103.75 C 54.085938 -98.46875 56.28125 -90.203125 56.28125 -78.953125 L 33.75 -78.953125 L 33.609375 -86.546875 C 33.609375 -88.003906 33.203125 -89.160156 32.390625 -90.015625 C 31.578125 -90.878906 30.441406 -91.3125 28.984375 -91.3125 C 27.265625 -91.3125 25.972656 -90.835938 25.109375 -89.890625 C 24.253906 -88.953125 23.828125 -87.664062 23.828125 -86.03125 C 23.828125 -82.425781 25.890625 -78.691406 30.015625 -74.828125 L 42.890625 -62.46875 C 45.890625 -59.550781 48.378906 -56.78125 50.359375 -54.15625 C 52.335938 -51.539062 53.925781 -48.453125 55.125 -44.890625 C 56.320312 -41.328125 56.921875 -37.097656 56.921875 -32.203125 C 56.921875 -21.296875 54.925781 -13.03125 50.9375 -7.40625 C 46.945312 -1.78125 40.359375 1.03125 31.171875 1.03125 Z M 31.171875 1.03125 "/></g></g></g><g fill="#e7e3dd" fill-opacity="1"><g transform="translate(1103.2153, 800.999911)"><g><path d="M 1.9375 0 L 12.625 -110.640625 L 50.109375 -110.640625 L 60.65625 0 L 39.671875 0 L 38.125 -17.90625 L 24.734375 -17.90625 L 23.4375 0 Z M 26.40625 -35.546875 L 36.453125 -35.546875 L 31.5625 -91.828125 L 30.53125 -91.828125 Z M 26.40625 -35.546875 "/></g></g></g><g fill="#e7e3dd" fill-opacity="1"><g transform="translate(1164.776406, 800.999911)"><g><path d="M 18.296875 0 L 18.296875 -36.453125 L 0.640625 -110.640625 L 22.546875 -110.640625 L 28.71875 -73.15625 L 34.90625 -110.640625 L 56.796875 -110.640625 L 39.15625 -36.453125 L 39.15625 0 Z M 18.296875 0 "/></g></g></g><g fill="#e7e3dd" fill-opacity="1"><g transform="translate(1221.314792, 800.999911)"><g><path d="M 31.171875 1.03125 C 21.117188 1.03125 13.859375 -1.457031 9.390625 -6.4375 C 4.929688 -11.414062 2.703125 -19.445312 2.703125 -30.53125 L 2.703125 -41.34375 L 24.46875 -41.34375 L 24.46875 -27.5625 C 24.46875 -22.0625 26.226562 -19.3125 29.75 -19.3125 C 31.726562 -19.3125 33.101562 -19.890625 33.875 -21.046875 C 34.644531 -22.210938 35.03125 -24.171875 35.03125 -26.921875 C 35.03125 -30.523438 34.597656 -33.503906 33.734375 -35.859375 C 32.878906 -38.222656 31.785156 -40.195312 30.453125 -41.78125 C 29.128906 -43.375 26.75 -45.847656 23.3125 -49.203125 L 13.78125 -58.734375 C 6.394531 -65.941406 2.703125 -73.925781 2.703125 -82.6875 C 2.703125 -92.132812 4.867188 -99.328125 9.203125 -104.265625 C 13.546875 -109.203125 19.878906 -111.671875 28.203125 -111.671875 C 38.160156 -111.671875 45.328125 -109.03125 49.703125 -103.75 C 54.085938 -98.46875 56.28125 -90.203125 56.28125 -78.953125 L 33.75 -78.953125 L 33.609375 -86.546875 C 33.609375 -88.003906 33.203125 -89.160156 32.390625 -90.015625 C 31.578125 -90.878906 30.441406 -91.3125 28.984375 -91.3125 C 27.265625 -91.3125 25.972656 -90.835938 25.109375 -89.890625 C 24.253906 -88.953125 23.828125 -87.664062 23.828125 -86.03125 C 23.828125 -82.425781 25.890625 -78.691406 30.015625 -74.828125 L 42.890625 -62.46875 C 45.890625 -59.550781 48.378906 -56.78125 50.359375 -54.15625 C 52.335938 -51.539062 53.925781 -48.453125 55.125 -44.890625 C 56.320312 -41.328125 56.921875 -37.097656 56.921875 -32.203125 C 56.921875 -21.296875 54.925781 -13.03125 50.9375 -7.40625 C 46.945312 -1.78125 40.359375 1.03125 31.171875 1.03125 Z M 31.171875 1.03125 "/></g></g></g></svg>